<mxfile host="Electron" agent="Mozilla/5.0 (Macintosh; Intel Mac OS X 10_15_7) AppleWebKit/537.36 (KHTML, like Gecko) draw.io/27.0.2 Chrome/134.0.6998.205 Electron/35.3.0 Safari/537.36" version="27.0.2">
  <diagram name="System Flow" id="UA3zfO6X881hRuhl8GmZ">
    <mxGraphModel dx="784" dy="671" grid="1" gridSize="10" guides="1" tooltips="1" connect="1" arrows="1" fold="1" page="1" pageScale="1" pageWidth="827" pageHeight="1169" math="0" shadow="0">
      <root>
        <mxCell id="0" />
        <mxCell id="1" parent="0" />
        <mxCell id="QvUztdgj5nUjudW_3n3i-1" value="Start (Launch App)" style="ellipse;whiteSpace=wrap;html=1;fillColor=#DAE8FC;" vertex="1" parent="1">
          <mxGeometry x="100" y="40" width="120" height="60" as="geometry" />
        </mxCell>
        <mxCell id="QvUztdgj5nUjudW_3n3i-2" value="MainMenuPanel" style="rounded=1;whiteSpace=wrap;html=1;fillColor=#FFF2CC;" vertex="1" parent="1">
          <mxGeometry x="80" y="140" width="160" height="60" as="geometry" />
        </mxCell>
        <mxCell id="QvUztdgj5nUjudW_3n3i-3" value="Select Task" style="rhombus;whiteSpace=wrap;html=1;fillColor=#F8CECC;" vertex="1" parent="1">
          <mxGeometry x="110" y="230" width="100" height="60" as="geometry" />
        </mxCell>
        <mxCell id="QvUztdgj5nUjudW_3n3i-4" value="ShapeIdentificationPanel&#xa;AngleIdentificationPanel&#xa;ShapeAreaPanel&#xa;CircleCalculationPanel&#xa;CompoundShapePanel&#xa;SectorAreaPanel" style="rounded=1;whiteSpace=wrap;html=1;fillColor=#E1D5E7;" vertex="1" parent="1">
          <mxGeometry x="60" y="340" width="240" height="120" as="geometry" />
        </mxCell>
        <mxCell id="QvUztdgj5nUjudW_3n3i-5" value="Answer Question" style="rounded=1;whiteSpace=wrap;html=1;fillColor=#D5E8D4;" vertex="1" parent="1">
          <mxGeometry x="120" y="480" width="120" height="60" as="geometry" />
        </mxCell>
        <mxCell id="QvUztdgj5nUjudW_3n3i-6" value="Feedback &amp; Progress Update" style="rounded=1;whiteSpace=wrap;html=1;fillColor=#F8CECC;" vertex="1" parent="1">
          <mxGeometry x="120" y="560" width="160" height="60" as="geometry" />
        </mxCell>
        <mxCell id="QvUztdgj5nUjudW_3n3i-7" value="Task Complete?" style="rhombus;whiteSpace=wrap;html=1;fillColor=#FFF2CC;" vertex="1" parent="1">
          <mxGeometry x="150" y="640" width="100" height="60" as="geometry" />
        </mxCell>
        <mxCell id="QvUztdgj5nUjudW_3n3i-8" value="Show Score" style="rounded=1;whiteSpace=wrap;html=1;fillColor=#DAE8FC;" vertex="1" parent="1">
          <mxGeometry x="120" y="740" width="120" height="60" as="geometry" />
        </mxCell>
        <mxCell id="QvUztdgj5nUjudW_3n3i-9" value="Return to MainMenuPanel or End Session" style="rounded=1;whiteSpace=wrap;html=1;fillColor=#E1D5E7;" vertex="1" parent="1">
          <mxGeometry x="80" y="840" width="200" height="60" as="geometry" />
        </mxCell>
        <mxCell id="QvUztdgj5nUjudW_3n3i-10" style="edgeStyle=orthogonalEdgeStyle;rounded=0;orthogonalLoop=1;jettySize=auto;html=1;endArrow=block;" edge="1" parent="1" source="QvUztdgj5nUjudW_3n3i-1" target="QvUztdgj5nUjudW_3n3i-2">
          <mxGeometry relative="1" as="geometry" />
        </mxCell>
        <mxCell id="QvUztdgj5nUjudW_3n3i-11" style="edgeStyle=orthogonalEdgeStyle;rounded=0;orthogonalLoop=1;jettySize=auto;html=1;endArrow=block;" edge="1" parent="1" source="QvUztdgj5nUjudW_3n3i-2" target="QvUztdgj5nUjudW_3n3i-3">
          <mxGeometry relative="1" as="geometry" />
        </mxCell>
        <mxCell id="QvUztdgj5nUjudW_3n3i-12" style="edgeStyle=orthogonalEdgeStyle;rounded=0;orthogonalLoop=1;jettySize=auto;html=1;endArrow=block;" edge="1" parent="1" source="QvUztdgj5nUjudW_3n3i-3" target="QvUztdgj5nUjudW_3n3i-4">
          <mxGeometry relative="1" as="geometry" />
        </mxCell>
        <mxCell id="QvUztdgj5nUjudW_3n3i-13" style="edgeStyle=orthogonalEdgeStyle;rounded=0;orthogonalLoop=1;jettySize=auto;html=1;endArrow=block;" edge="1" parent="1" source="QvUztdgj5nUjudW_3n3i-4" target="QvUztdgj5nUjudW_3n3i-5">
          <mxGeometry relative="1" as="geometry" />
        </mxCell>
        <mxCell id="QvUztdgj5nUjudW_3n3i-14" style="edgeStyle=orthogonalEdgeStyle;rounded=0;orthogonalLoop=1;jettySize=auto;html=1;endArrow=block;" edge="1" parent="1" source="QvUztdgj5nUjudW_3n3i-5" target="QvUztdgj5nUjudW_3n3i-6">
          <mxGeometry relative="1" as="geometry" />
        </mxCell>
        <mxCell id="QvUztdgj5nUjudW_3n3i-15" style="edgeStyle=orthogonalEdgeStyle;rounded=0;orthogonalLoop=1;jettySize=auto;html=1;endArrow=block;" edge="1" parent="1" source="QvUztdgj5nUjudW_3n3i-6" target="QvUztdgj5nUjudW_3n3i-7">
          <mxGeometry relative="1" as="geometry" />
        </mxCell>
        <mxCell id="QvUztdgj5nUjudW_3n3i-16" value="No" style="edgeStyle=orthogonalEdgeStyle;rounded=0;orthogonalLoop=1;jettySize=auto;html=1;endArrow=none;entryX=0;entryY=0.5;entryDx=0;entryDy=0;" edge="1" parent="1" source="QvUztdgj5nUjudW_3n3i-7" target="QvUztdgj5nUjudW_3n3i-5">
          <mxGeometry x="0.1905" y="10" relative="1" as="geometry">
            <mxPoint x="90" y="540" as="targetPoint" />
            <Array as="points">
              <mxPoint x="200" y="710" />
              <mxPoint x="50" y="710" />
              <mxPoint x="50" y="510" />
            </Array>
            <mxPoint as="offset" />
          </mxGeometry>
        </mxCell>
        <mxCell id="QvUztdgj5nUjudW_3n3i-17" value="Yes" style="edgeStyle=orthogonalEdgeStyle;rounded=0;orthogonalLoop=1;jettySize=auto;html=1;endArrow=block;" edge="1" parent="1" source="QvUztdgj5nUjudW_3n3i-7" target="QvUztdgj5nUjudW_3n3i-8">
          <mxGeometry x="-0.2" y="10" relative="1" as="geometry">
            <Array as="points">
              <mxPoint x="200" y="730" />
              <mxPoint x="180" y="730" />
            </Array>
            <mxPoint as="offset" />
          </mxGeometry>
        </mxCell>
        <mxCell id="QvUztdgj5nUjudW_3n3i-18" style="edgeStyle=orthogonalEdgeStyle;rounded=0;orthogonalLoop=1;jettySize=auto;html=1;endArrow=block;" edge="1" parent="1" source="QvUztdgj5nUjudW_3n3i-8" target="QvUztdgj5nUjudW_3n3i-9">
          <mxGeometry relative="1" as="geometry" />
        </mxCell>
        <mxCell id="QvUztdgj5nUjudW_3n3i-19" style="edgeStyle=orthogonalEdgeStyle;rounded=0;orthogonalLoop=1;jettySize=auto;html=1;endArrow=block;exitX=1;exitY=0.5;exitDx=0;exitDy=0;" edge="1" parent="1" source="QvUztdgj5nUjudW_3n3i-9">
          <mxGeometry relative="1" as="geometry">
            <mxPoint x="320" y="880" as="sourcePoint" />
            <mxPoint x="250" y="170" as="targetPoint" />
            <Array as="points">
              <mxPoint x="280" y="880" />
              <mxPoint x="340" y="880" />
              <mxPoint x="340" y="840" />
              <mxPoint x="350" y="840" />
              <mxPoint x="350" y="170" />
            </Array>
          </mxGeometry>
        </mxCell>
        <mxCell id="QvUztdgj5nUjudW_3n3i-21" value="" style="endArrow=classic;html=1;rounded=0;" edge="1" parent="1">
          <mxGeometry width="50" height="50" relative="1" as="geometry">
            <mxPoint x="100" y="510" as="sourcePoint" />
            <mxPoint x="120" y="509.55" as="targetPoint" />
            <Array as="points">
              <mxPoint x="110" y="510" />
            </Array>
          </mxGeometry>
        </mxCell>
      </root>
    </mxGraphModel>
  </diagram>
</mxfile>
